<?xml version="1.0" standalone="no"?><svg xmlns="http://www.w3.org/2000/svg" viewBox="0 0 1440 320"><path fill="#EF5D36" fill-opacity="1" d="M0,0L34.3,37.3C68.6,75,137,149,206,160C274.3,171,343,117,411,122.7C480,128,549,192,617,192C685.7,192,754,128,823,106.7C891.4,85,960,107,1029,101.3C1097.1,96,1166,64,1234,42.7C1302.9,21,1371,11,1406,5.3L1440,0L1440,320L1405.7,320C1371.4,320,1303,320,1234,320C1165.7,320,1097,320,1029,320C960,320,891,320,823,320C754.3,320,686,320,617,320C548.6,320,480,320,411,320C342.9,320,274,320,206,320C137.1,320,69,320,34,320L0,320Z"></path></svg>